<svg version="1" xmlns="http://www.w3.org/2000/svg" width="1365.333" height="1365.333" viewBox="0 0 1024.000000 1024.000000"><path d="M0 512v512h1024V0H0v512zm366.5-136.8c16.7 3.2 27.3 12.6 30.6 27.2.6 3 1 9.2.7 14.2-.3 7.3-.9 10.1-3.5 15.6-7.9 16.9-20.9 22.7-51 22.8H329l.1 10.7c.1 6 .4 15.2.8 20.6l.6 9.7h-30V373.5l30 .2c17.6.2 32.5.8 36 1.5zm156.5 9.3V395h-29v-21h29v10.5zm72.3 20c9 1.9 15 5 20.9 10.7 4.6 4.5 9.8 13.4 9.8 16.9 0 1.3-2.5 2.1-11.2 3.8-6.2 1.2-12 2.4-12.9 2.7-1.2.3-1.9-.4-2.4-2.3-1.1-4.4-4.2-8-8.5-9.7-8.1-3.2-15.5-1.5-20.7 4.9-3.9 4.7-5.6 10.7-5.6 19.5 0 12.1 4.1 20.8 11.6 24.7 4 2 12.4 2 16.4 0 3.5-1.9 7.1-6 7.9-9.2l.5-2.1 13 2c14.8 2.2 14.7 2.2 10.3 10.9-3.8 7.4-6.9 11.2-12.2 14.7-13.8 9.1-37.6 10-53.4 1.9-5.9-3-14.1-11.8-17.2-18.3-9.2-19.4-5.9-45 7.4-58.7 11.5-11.7 28.3-16.2 46.3-12.4zm99 0c20.7 4.4 32.6 20.1 34.4 45.2l.6 9.3h-33.1c-37.9 0-35.4-.7-30.4 9.1 3.5 6.9 8.8 9.9 17.6 9.9 8.9 0 14.8-3.3 19.2-10.6 1-1.7 1.7-1.6 13 1.6 6.5 1.8 12.1 3.5 12.3 3.6.9.7-6.4 11.6-10.3 15.2-14.5 13.4-40.8 15.8-59.8 5.5-19.5-10.6-27.4-41.8-16.4-65 9.3-19.5 29.8-28.7 52.9-23.8zm-210.7 1.8c.3.2-1 6-2.8 12.8-3.2 11.8-3.5 12.4-5.8 12.1-18.6-1.9-23.2-1-29.4 5.8-5.3 5.9-5.8 9.4-5.4 35.7l.3 23.3h-29v-89H440v11.3l4.4-4.1c8.2-7.6 13.7-9.3 28.4-8.8 5.7.2 10.5.6 10.8.9zm38.9 45.2V496h-29v-89h29v44.5zM324 521.6c8.8 2.6 15 6.2 21 12.3 5.9 5.8 11.9 16.4 12.3 21.6l.2 2.8-14.5 2.8c-7.9 1.6-14.5 2.7-14.5 2.6-.1-.1-1-2.5-2-5.2-1-2.8-3.5-6.6-5.5-8.5-10.4-10.1-30.3-7-38.4 5.8-8.2 13.1-8.7 38.8-1.1 51.8 8.6 14.7 27.6 18.9 39.5 8.7 4.3-3.7 8-9.8 8-13.2 0-1.1.4-2.2.8-2.5.7-.4 29.2 3.3 30 4 .7.5-5 15.8-7.4 19.7-5.8 9.4-14.2 15.9-25.4 19.8-5.6 2-8.5 2.3-20.5 2.3-12.7 0-14.7-.3-22-2.8-10.1-3.5-16-7.3-22.7-14.5-6-6.4-10.8-15.4-13.4-25.1-2.5-9.1-2.6-32.9-.1-41.9 7.7-28.5 29.9-44 60.7-42.6 5.2.2 12 1.2 15 2.1zm78.2 21.4c-.3 11.5-.2 21 .2 21 .3 0 2.6-1.5 5.1-3.4 6.8-5.2 14.4-7.7 24-7.7 11.9-.1 18.5 2 24.5 8 7.5 7.5 8.2 10.8 8.6 40.6.3 13.7.5 28.9.7 33.8l.2 8.7h-29.1l.4-27.8c.3-21.3.1-28.6-1-31.6-3.8-11.2-18.5-10.3-29.4 1.7l-4.6 5.1.4 26.3.3 26.3h-29V522h29l-.3 21zm309 10.5c-.3 20.3-.1 31.5.5 31.5 1.3 0 28.3-27.6 28.3-29 0-.6 6.5-1 19.3-1l19.2.1-17.8 17.2-17.9 17.2 15.7 23c8.7 12.6 17.1 24.6 18.6 26.6 1.6 2 2.9 4 2.9 4.3 0 .3-8.1.6-17.9.6h-17.9l-3.7-7.8c-3.5-7.4-14.6-26.3-16.9-28.9-.9-1-2.5 0-7 4.6l-5.8 5.8.9 13.2.8 13.1h-29V522h28.2l-.5 31.5zM533 552.1c8.8 1.4 15.9 4.8 22.1 10.5 9.1 8.6 13.5 19 14.6 35.1l.6 9.3h-33.1c-36.3 0-34.3-.4-32 6.1 2.9 8.8 9 12.9 18.9 12.9 9.2 0 15.1-3.2 19.5-10.6 1-1.7 1.7-1.6 13 1.6 6.5 1.8 12.1 3.5 12.3 3.6.2.2-1.1 2.8-2.8 5.8-10 17.3-32.3 25-56.1 19.4-21.9-5.2-35.5-28.1-32.1-53.8 3.9-28.4 26.2-44.6 55.1-39.9zm103 0c8.9 1.4 18 5.8 23.4 11.3 4.4 4.6 9.6 13.5 9.6 16.6 0 1.2-2.9 2.1-12.5 4.1l-12.5 2.6-2.1-4.3c-6.9-14.4-27.3-11.9-32.5 3.9-2.1 6.3-2.3 17.5-.5 24 1.9 6.8 7.9 13.2 13.6 14.6 5 1.3 11 .3 15.1-2.4 2.2-1.4 5.8-6.2 6.7-8.9.2-.6 5.6-.2 13 .9 14.3 2.2 14.1 1.9 10.3 10.2-3.5 7.4-6.3 10.8-12 14.8-17.2 11.7-45.5 10.4-61.2-3-4.9-4.3-10.5-13-12.5-19.8-3.9-13.1-2.9-29 2.6-40.4 9-19 28.1-28 51.5-24.2z"/><path d="M329.5 399.2c-.3.8-.4 8.1-.3 16.3l.3 15 14.1-.1c15.9-.1 19.2-1.1 22.8-7.3 2.7-4.6 2.7-14.2 0-17.8-4.7-6.2-6.3-6.8-22-7.1-11.6-.3-14.5-.1-14.9 1zM674 426.1c-4.8 2-10 8.4-10 12.4 0 1.3 2.5 1.5 19.1 1.5h19l-.7-2.3c-2.7-8.9-7.2-12.1-17.4-12.4-4.1-.2-8.6.2-10 .8zM519.2 573c-2.3.3-5.5 1.5-7 2.7-3.4 2.5-7.2 8-7.2 10.4 0 1.8 1.2 1.9 19 1.9 12.5 0 19-.4 19-1 0-2.2-4.1-8.9-6.6-10.9-1.4-1.1-4.2-2.3-6.3-2.7-2-.3-4.3-.7-5.1-.9-.8-.1-3.4.1-5.8.5z"/></svg>